<?xml version="1.0" standalone="no"?>
<!DOCTYPE svg PUBLIC "-//W3C//DTD SVG 20010904//EN"
 "http://www.w3.org/TR/2001/REC-SVG-20010904/DTD/svg10.dtd">
<svg version="1.0" xmlns="http://www.w3.org/2000/svg"
 width="512.000000pt" height="512.000000pt" viewBox="0 0 512.000000 512.000000"
 preserveAspectRatio="xMidYMid meet">
<metadata>
Created by potrace 1.16, written by Peter Selinger 2001-2019
</metadata>
<g transform="translate(0.000000,512.000000) scale(0.100000,-0.100000)"
fill="#000000" stroke="none">
<path d="M3435 5095 c-23 -22 -25 -31 -25 -125 l0 -100 -1670 0 c-1783 0
-1716 2 -1734 -45 -3 -9 -6 -109 -6 -221 0 -204 0 -205 25 -229 23 -24 28 -25
170 -25 l145 0 0 -828 c0 -818 0 -828 20 -850 11 -12 33 -24 48 -27 75 -16
114 -63 90 -112 -31 -65 -109 -68 -138 -6 l-15 33 -87 0 -88 0 0 -33 c0 -19
11 -56 25 -83 14 -27 25 -52 25 -57 0 -4 -50 -73 -110 -154 l-110 -146 0 -212
0 -211 109 -107 108 -107 212 0 212 0 96 93 c53 50 102 106 109 124 10 23 14
83 14 215 0 212 10 182 -129 367 -48 64 -90 121 -94 128 -4 6 5 35 19 64 32
63 37 162 12 220 -21 48 -81 114 -118 129 l-30 12 0 774 0 774 1445 0 1445 0
0 -60 c0 -51 4 -65 25 -85 22 -23 31 -25 125 -25 l100 0 0 -2000 0 -2000 -165
0 -165 0 0 1705 0 1705 -90 0 -90 0 0 -170 0 -170 -250 0 -250 0 0 85 0 85
-90 0 -90 0 0 -85 0 -85 -250 0 -250 0 0 40 0 40 -90 0 -90 0 0 -40 0 -40
-255 0 -255 0 0 120 0 120 555 0 555 0 0 90 0 90 -555 0 -555 0 0 175 0 175
-90 0 -90 0 0 -1920 0 -1920 -62 0 -62 0 -211 210 c-203 202 -214 210 -251
210 -38 0 -47 -8 -249 -210 -172 -172 -215 -210 -237 -210 l-28 0 0 -90 0 -90
2560 0 2560 0 0 90 c0 88 -1 90 -24 90 l-23 0 23 47 c60 122 8 284 -108 342
l-42 21 3 79 c2 68 -1 85 -23 129 -30 59 -91 114 -145 130 -57 18 -150 14
-196 -7 -107 -48 -172 -176 -147 -288 l9 -41 -38 -18 c-50 -22 -113 -90 -130
-140 -26 -78 -13 -187 29 -236 14 -17 11 -18 -51 -18 l-67 0 0 2000 0 2000
100 0 c94 0 103 2 125 25 21 20 25 34 25 85 l0 60 315 0 316 0 24 25 c25 24
25 25 25 229 0 112 -3 212 -6 221 -16 41 -49 45 -369 45 l-305 0 0 100 c0 94
-2 103 -25 125 l-24 25 -466 0 -466 0 -24 -25z m485 -320 l0 -165 -165 0 -165
0 0 165 0 165 165 0 165 0 0 -165z m340 -125 l0 -290 -335 0 -335 0 0 34 0 35
231 3 231 3 24 28 c24 28 24 30 24 253 l0 224 80 0 80 0 0 -290z m-3915 -40
l120 -80 -142 0 -143 0 0 80 c0 76 1 80 23 80 12 0 76 -36 142 -80z m620 71
c-6 -4 -52 -36 -103 -71 l-94 -62 -106 71 -107 71 210 0 c118 0 205 -4 200 -9z
m933 -62 l-106 -71 -94 62 c-51 35 -97 67 -102 71 -6 5 81 9 200 9 l209 0
-107 -71z m1117 62 c-16 -14 -194 -131 -200 -131 -6 0 -184 117 -199 131 -6 5
80 9 199 9 119 0 205 -4 200 -9z m395 -71 l0 -80 -142 0 c-78 0 -138 3 -135 7
4 3 55 39 114 79 67 45 119 73 136 73 l27 1 0 -80z m-2028 -7 l101 -68 -101
-3 c-56 -1 -148 -1 -204 0 l-101 3 99 67 c54 37 100 67 102 67 1 1 48 -29 104
-66z m1113 -64 c5 -5 -80 -9 -195 -9 l-205 0 104 69 104 70 91 -61 c50 -33 95
-65 101 -69z m1515 -786 l0 -218 -70 105 c-38 58 -70 109 -70 115 0 8 132 214
138 215 1 0 2 -98 2 -217z m-91 -410 c33 -51 61 -96 61 -100 0 -4 -32 -55 -70
-113 l-70 -105 0 215 c0 121 4 210 9 205 4 -6 36 -51 70 -102z m-2129 -343 l0
-70 -255 0 -255 0 0 70 0 70 255 0 255 0 0 -70z m680 -286 l0 -356 -106 101
-107 101 -143 0 -144 0 0 255 0 255 250 0 250 0 0 -356z m680 -69 l0 -425
-250 0 -250 0 0 425 0 425 250 0 250 0 0 -425z m860 83 l0 -213 -70 105 c-38
58 -70 108 -70 113 0 8 131 207 137 207 1 0 3 -96 3 -212z m-2220 -135 c1
-109 4 -163 13 -174 26 -34 55 -39 219 -39 l163 0 155 -156 c85 -86 169 -162
187 -170 25 -11 97 -14 328 -14 l295 0 0 -930 0 -930 -935 0 -935 0 0 1285 0
1285 255 0 255 0 0 -157z m2129 -270 c33 -51 61 -97 61 -103 0 -10 -110 -181
-131 -204 -5 -6 -9 83 -9 204 0 121 4 210 9 205 4 -6 36 -51 70 -102z m-3403
-90 c27 -36 53 -72 57 -80 7 -11 -21 -13 -148 -13 l-156 0 61 80 c57 75 63 80
99 80 34 0 41 -5 87 -67z m164 -381 l0 -108 -58 -57 -58 -57 -134 0 -134 0
-58 57 -58 57 0 108 0 108 250 0 250 0 0 -108z m3328 -249 l-3 -106 -67 101
c-38 56 -68 105 -68 109 0 4 30 53 68 109 l67 103 3 -105 c1 -57 1 -152 0
-211z m-91 -303 l70 -105 -73 -110 -74 -110 0 219 c0 121 2 217 4 215 1 -2 35
-51 73 -109z m93 -622 l0 -213 -70 105 c-38 58 -70 108 -70 113 0 8 131 207
137 207 1 0 3 -96 3 -212z m735 57 c43 -42 28 -103 -29 -125 -51 -19 -108 33
-97 90 1 8 12 25 24 38 27 30 71 29 102 -3z m-170 -340 c27 -26 32 -70 12 -96
-47 -61 -140 -34 -140 41 0 69 80 104 128 55z m340 0 c40 -39 32 -96 -16 -121
-54 -28 -109 8 -109 70 0 67 78 99 125 51z m-4300 -115 l100 -100 -205 0 -205
0 100 100 c55 55 102 100 105 100 3 0 50 -45 105 -100z"/>
<path d="M1450 2130 l0 -90 90 0 90 0 0 90 0 90 -90 0 -90 0 0 -90z"/>
<path d="M1790 2130 l0 -90 90 0 90 0 0 90 0 90 -90 0 -90 0 0 -90z"/>
<path d="M2130 2130 l0 -90 90 0 90 0 0 90 0 90 -90 0 -90 0 0 -90z"/>
<path d="M1450 1790 l0 -90 90 0 90 0 0 90 0 90 -90 0 -90 0 0 -90z"/>
<path d="M1790 1790 l0 -90 90 0 90 0 0 90 0 90 -90 0 -90 0 0 -90z"/>
<path d="M2130 1790 l0 -90 90 0 90 0 0 90 0 90 -90 0 -90 0 0 -90z"/>
<path d="M2470 1790 l0 -90 90 0 90 0 0 90 0 90 -90 0 -90 0 0 -90z"/>
<path d="M2810 1790 l0 -90 90 0 90 0 0 90 0 90 -90 0 -90 0 0 -90z"/>
<path d="M1450 1450 l0 -90 90 0 90 0 0 90 0 90 -90 0 -90 0 0 -90z"/>
<path d="M1790 1450 l0 -90 90 0 90 0 0 90 0 90 -90 0 -90 0 0 -90z"/>
<path d="M2130 1450 l0 -90 90 0 90 0 0 90 0 90 -90 0 -90 0 0 -90z"/>
<path d="M2470 1450 l0 -90 90 0 90 0 0 90 0 90 -90 0 -90 0 0 -90z"/>
<path d="M2810 1450 l0 -90 90 0 90 0 0 90 0 90 -90 0 -90 0 0 -90z"/>
<path d="M1450 1110 l0 -90 90 0 90 0 0 90 0 90 -90 0 -90 0 0 -90z"/>
<path d="M1790 1110 l0 -90 90 0 90 0 0 90 0 90 -90 0 -90 0 0 -90z"/>
<path d="M2130 1110 l0 -90 90 0 90 0 0 90 0 90 -90 0 -90 0 0 -90z"/>
<path d="M2470 1110 l0 -90 90 0 90 0 0 90 0 90 -90 0 -90 0 0 -90z"/>
<path d="M2810 1110 l0 -90 90 0 90 0 0 90 0 90 -90 0 -90 0 0 -90z"/>
<path d="M1450 770 l0 -90 90 0 90 0 0 90 0 90 -90 0 -90 0 0 -90z"/>
<path d="M1790 770 l0 -90 90 0 90 0 0 90 0 90 -90 0 -90 0 0 -90z"/>
<path d="M2130 770 l0 -90 90 0 90 0 0 90 0 90 -90 0 -90 0 0 -90z"/>
<path d="M2470 770 l0 -90 90 0 90 0 0 90 0 90 -90 0 -90 0 0 -90z"/>
<path d="M2810 770 l0 -90 90 0 90 0 0 90 0 90 -90 0 -90 0 0 -90z"/>
<path d="M1450 430 l0 -90 90 0 90 0 0 90 0 90 -90 0 -90 0 0 -90z"/>
<path d="M1790 430 l0 -90 90 0 90 0 0 90 0 90 -90 0 -90 0 0 -90z"/>
<path d="M2130 430 l0 -90 90 0 90 0 0 90 0 90 -90 0 -90 0 0 -90z"/>
<path d="M2470 430 l0 -90 90 0 90 0 0 90 0 90 -90 0 -90 0 0 -90z"/>
<path d="M2810 430 l0 -90 90 0 90 0 0 90 0 90 -90 0 -90 0 0 -90z"/>
</g>
</svg>
