<?xml version="1.0" standalone="no"?>
<!DOCTYPE svg PUBLIC "-//W3C//DTD SVG 20010904//EN"
 "http://www.w3.org/TR/2001/REC-SVG-20010904/DTD/svg10.dtd">
<svg version="1.0" xmlns="http://www.w3.org/2000/svg"
 width="512.000000pt" height="512.000000pt" viewBox="0 0 512.000000 512.000000"
 preserveAspectRatio="xMidYMid meet">
<metadata>
Created by potrace 1.16, written by Peter Selinger 2001-2019
</metadata>
<g transform="translate(0.000000,512.000000) scale(0.100000,-0.100000)"
fill="#000000" stroke="none">
<path d="M2992 4634 c-29 -14 -61 -38 -71 -53 -15 -21 -36 -31 -95 -45 -205
-48 -390 -189 -496 -379 -28 -50 -34 -56 -48 -45 -9 7 -106 98 -216 201 -122
115 -218 197 -244 209 -56 25 -137 25 -194 0 -27 -12 -126 -98 -273 -236
l-230 -216 -10 37 c-27 101 -39 105 -299 101 l-208 -3 -29 -33 -29 -32 0 -308
-1 -307 -254 -238 c-280 -263 -295 -283 -295 -383 1 -178 173 -282 333 -202
22 11 77 56 123 100 l84 81 0 -267 c0 -253 1 -267 20 -286 29 -29 82 -30 113
-3 16 15 17 45 17 357 l1 341 517 486 517 487 140 -132 c76 -72 170 -160 208
-196 l68 -65 5 -180 c4 -124 10 -193 21 -223 20 -57 69 -94 133 -100 l49 -4 7
-47 c25 -169 153 -387 291 -494 l53 -42 0 -67 0 -68 -74 -37 -73 -36 -32 22
c-47 34 -98 29 -240 -23 -69 -26 -128 -46 -132 -46 -4 0 -9 123 -11 273 -3
244 -5 276 -21 301 -35 53 -58 56 -391 56 -177 0 -316 -4 -331 -10 -14 -5 -37
-22 -50 -36 l-25 -27 0 -468 0 -469 -37 -47 c-63 -83 -123 -236 -123 -315 l0
-28 -229 0 -230 0 -3 235 c-3 227 -4 235 -25 257 -31 31 -89 30 -114 -1 -17
-21 -19 -44 -19 -275 0 -281 4 -300 69 -343 33 -22 41 -23 287 -23 239 0 254
-1 254 -18 0 -10 -7 -169 -16 -352 -14 -306 -14 -337 1 -376 20 -52 57 -91
110 -115 38 -18 116 -19 1870 -19 1229 0 1842 4 1867 10 48 14 94 53 118 101
15 29 20 59 20 124 0 78 -2 88 -25 110 -30 30 -64 32 -99 4 -24 -19 -26 -27
-26 -89 0 -104 9 -100 -251 -100 l-219 0 0 664 0 665 53 -18 c151 -53 243
-124 314 -241 43 -72 63 -155 69 -288 7 -190 13 -231 35 -253 28 -28 80 -25
109 6 l24 25 -12 198 c-12 219 -26 278 -86 386 -69 124 -189 230 -318 283 -33
13 -237 87 -454 163 -429 152 -461 159 -511 116 l-28 -24 -77 39 -78 39 0 68
1 67 50 39 c143 110 274 328 298 496 l6 45 47 5 c80 10 140 71 152 155 4 25 7
89 7 143 0 53 3 133 5 178 7 100 -9 145 -61 175 -33 20 -35 24 -35 72 -1 164
-81 352 -210 490 -106 114 -238 191 -380 223 -56 13 -76 23 -114 59 -53 51
-94 65 -192 65 -55 0 -81 -5 -122 -26z m202 -150 c24 -24 28 -52 24 -182 -4
-148 -12 -162 -95 -162 -87 0 -93 12 -93 178 0 172 5 182 90 182 40 0 64 -5
74 -16z m-1356 -176 c49 -46 161 -150 249 -232 l159 -149 -9 -76 c-5 -42 -13
-80 -18 -85 -7 -8 -71 49 -391 351 -56 54 -71 63 -102 63 -43 0 31 67 -876
-789 -322 -303 -595 -554 -608 -558 -57 -14 -107 44 -81 96 11 21 863 832
1486 1413 33 30 61 48 76 48 17 0 53 -26 115 -82z m1673 28 c86 -41 180 -124
237 -211 70 -104 102 -207 109 -353 6 -105 8 -114 31 -132 14 -11 33 -20 43
-20 11 0 19 -7 19 -15 0 -13 -99 -15 -830 -15 -731 0 -830 2 -830 15 0 9 9 15
24 15 13 0 34 8 47 19 21 17 24 29 30 142 8 145 39 247 107 346 78 115 233
229 338 249 l31 6 5 -119 c4 -93 9 -127 26 -158 43 -86 105 -118 222 -119 106
-1 169 26 215 92 29 42 30 47 33 177 l4 133 41 -13 c23 -7 67 -25 98 -39z
m-2551 -349 l0 -74 -130 -122 -130 -123 0 196 0 196 130 0 130 0 0 -73z m2780
-741 c0 -185 -14 -251 -75 -361 -112 -200 -284 -316 -505 -341 -78 -9 -206 18
-296 61 -129 63 -257 205 -322 357 -25 59 -26 74 -30 256 l-4 192 616 0 616 0
0 -164z m-1762 -777 l-3 -272 -215 -76 c-118 -42 -229 -85 -247 -94 -18 -9
-34 -17 -38 -17 -3 0 -5 162 -5 360 l0 359 113 4 c61 1 176 4 255 5 l142 2 -2
-271z m987 -64 c97 -22 221 -21 328 4 48 12 90 21 92 21 3 0 5 -27 5 -59 0
-74 22 -104 109 -146 34 -16 60 -34 58 -39 -7 -20 -162 -95 -242 -117 -186
-52 -419 -18 -584 85 l-54 33 73 39 c87 46 110 77 110 152 0 46 2 53 18 48 9
-3 49 -12 87 -21z m-558 -390 c36 -178 63 -241 132 -308 25 -25 150 -111 276
-190 l230 -145 3 -376 2 -376 -575 0 -575 0 0 693 0 692 233 82 c127 45 234
82 237 82 3 1 19 -69 37 -154z m1718 66 l220 -78 3 -692 2 -691 -575 0 -575 0
2 377 3 377 225 142 c246 155 318 214 355 297 18 39 85 318 85 354 0 6 -3 6
255 -86z m-1514 -37 c73 -50 180 -99 275 -126 68 -19 102 -23 239 -22 167 0
217 9 350 62 47 19 142 72 193 108 12 9 22 12 22 6 0 -24 -31 -154 -43 -185
-23 -54 -66 -89 -279 -222 -112 -71 -212 -134 -224 -142 -19 -12 -40 -1 -245
128 -248 156 -252 159 -284 210 -19 29 -71 219 -60 219 2 0 27 -16 56 -36z
m-861 -759 l0 -665 -224 0 c-189 0 -226 2 -236 15 -11 13 -11 72 -1 313 24
594 29 632 88 738 35 62 105 137 164 175 39 24 167 80 207 88 1 1 2 -298 2
-664z"/>
</g>
</svg>
