<?xml version="1.0" standalone="no"?>
<!DOCTYPE svg PUBLIC "-//W3C//DTD SVG 20010904//EN"
 "http://www.w3.org/TR/2001/REC-SVG-20010904/DTD/svg10.dtd">
<svg version="1.0" xmlns="http://www.w3.org/2000/svg"
 width="512.000000pt" height="513.000000pt" viewBox="0 0 512.000000 513.000000"
 preserveAspectRatio="xMidYMid meet">
<metadata>
Created by potrace 1.16, written by Peter Selinger 2001-2019
</metadata>
<g transform="translate(0.000000,513.000000) scale(0.100000,-0.100000)"
fill="#000000" stroke="none">
<path d="M183 4978 c-85 -84 -162 -166 -170 -182 -9 -18 -13 -42 -10 -63 3
-18 105 -197 229 -404 191 -319 228 -374 255 -386 21 -8 76 -13 160 -13 l128
0 607 -613 606 -614 -363 -363 -363 -363 -64 14 c-38 9 -118 14 -203 13 -120
0 -154 -4 -238 -27 -193 -53 -339 -140 -476 -283 -151 -157 -234 -323 -266
-534 -25 -160 -15 -307 30 -458 18 -61 57 -92 115 -92 31 0 53 19 260 225
l226 225 94 0 95 0 113 -113 112 -112 0 -100 0 -100 -219 -219 c-136 -136
-221 -228 -224 -244 -7 -38 11 -90 38 -108 89 -58 393 -83 563 -45 201 44 369
138 510 285 122 127 204 269 252 436 30 103 38 344 16 445 l-15 70 292 293
292 293 62 -66 63 -67 -39 -44 c-43 -49 -51 -74 -39 -121 11 -43 52 -73 100
-73 31 0 47 8 81 39 l43 40 646 -702 c356 -387 667 -717 692 -735 55 -40 140
-80 209 -98 69 -18 228 -18 302 1 174 45 324 170 401 336 28 62 29 70 32 238
3 160 2 178 -19 230 -54 135 -65 147 -806 827 -387 355 -703 648 -703 651 0 3
16 23 35 44 59 66 44 151 -33 180 -38 15 -80 1 -126 -41 l-41 -38 -67 62 -67
62 293 293 294 294 59 -11 c157 -30 313 -24 471 19 323 87 601 364 691 689 18
64 21 103 21 280 0 171 -3 217 -19 274 -23 84 -44 107 -106 113 l-46 6 -227
-227 -228 -226 -92 0 -92 0 -110 113 -109 112 -1 98 0 99 214 219 c138 141
215 229 219 245 7 40 -11 92 -38 110 -77 51 -365 81 -519 55 -215 -37 -401
-136 -554 -295 -122 -127 -199 -259 -248 -423 -34 -115 -44 -348 -20 -458 l15
-70 -367 -368 -367 -367 -612 612 -613 613 0 132 c0 81 -5 142 -12 158 -9 20
-110 85 -386 251 -340 203 -378 224 -419 224 -45 0 -47 -1 -200 -152z m3991
-90 c-16 -18 -88 -94 -161 -169 l-133 -136 0 -186 0 -186 152 -160 c83 -88
166 -167 184 -176 38 -18 315 -22 361 -5 15 6 102 84 192 173 l163 162 -5
-105 c-8 -130 -34 -227 -95 -345 -37 -73 -64 -108 -142 -186 -83 -84 -108
-101 -200 -147 -136 -67 -214 -86 -360 -86 -88 0 -134 5 -199 22 -46 13 -96
20 -110 17 -18 -4 -357 -336 -1045 -1024 l-1019 -1019 6 -53 c4 -30 13 -83 21
-119 9 -36 16 -110 16 -165 0 -221 -87 -416 -257 -575 -143 -133 -298 -198
-493 -207 l-115 -5 168 169 167 170 0 188 0 187 -156 159 c-86 87 -171 165
-189 173 -39 19 -315 23 -362 6 -15 -6 -101 -84 -191 -173 l-162 -162 0 70 c1
96 22 205 57 296 88 225 298 413 538 480 113 32 286 32 404 0 46 -12 95 -19
110 -16 18 4 350 329 1045 1024 l1019 1019 -6 53 c-4 30 -13 83 -21 119 -47
199 3 439 128 614 150 211 381 333 630 335 l90 1 -30 -32z m-3184 -460 c0 -64
5 -129 11 -145 5 -15 292 -310 642 -661 l632 -632 -67 -66 -66 -67 -638 642
-639 642 -136 -1 -136 0 -178 296 -177 296 82 83 82 83 294 -177 294 -176 0
-117z m2220 -2078 l65 -59 -215 -215 c-118 -119 -217 -215 -220 -215 -3 1 -32
30 -65 66 l-59 64 209 209 c116 116 212 210 215 210 3 -1 34 -27 70 -60z m907
-831 c373 -341 697 -643 720 -670 162 -191 95 -487 -137 -602 -60 -30 -72 -32
-165 -32 -92 0 -105 3 -165 32 -36 17 -81 46 -102 65 -20 18 -300 321 -623
673 -324 352 -604 657 -624 678 l-35 37 219 220 c121 121 223 220 227 220 4 0
313 -279 685 -621z"/>
<path d="M3428 3564 c-36 -19 -48 -43 -48 -94 0 -115 168 -136 198 -25 26 92
-67 165 -150 119z"/>
<path d="M3155 3286 c-16 -8 -319 -304 -672 -658 l-643 -644 0 -41 c0 -79 73
-129 143 -99 18 8 308 290 675 658 l642 644 0 42 c0 77 -77 129 -145 98z"/>
<path d="M1603 1740 c-55 -33 -61 -122 -12 -163 69 -57 169 -14 169 73 0 52
-13 76 -50 95 -39 20 -69 19 -107 -5z"/>
<path d="M3514 1664 c-51 -25 -72 -92 -45 -141 5 -10 221 -228 478 -485 l469
-468 46 0 c78 0 125 70 95 141 -19 43 -921 944 -960 958 -37 14 -46 14 -83 -5z"/>
</g>
</svg>
