<?xml version="1.0" standalone="no"?>
<!DOCTYPE svg PUBLIC "-//W3C//DTD SVG 20010904//EN"
 "http://www.w3.org/TR/2001/REC-SVG-20010904/DTD/svg10.dtd">
<svg version="1.0" xmlns="http://www.w3.org/2000/svg"
 width="512.000000pt" height="512.000000pt" viewBox="0 0 512.000000 512.000000"
 preserveAspectRatio="xMidYMid meet">
<metadata>
Created by potrace 1.16, written by Peter Selinger 2001-2019
</metadata>
<g transform="translate(0.000000,512.000000) scale(0.100000,-0.100000)"
fill="#000000" stroke="none">
<path d="M2472 4980 c-43 -18 -89 -60 -113 -104 -20 -39 -31 -47 -98 -75 -81
-32 -165 -84 -226 -139 l-38 -34 54 -54 c29 -30 58 -54 64 -54 7 0 22 12 36
26 26 28 148 104 167 104 9 0 12 -72 12 -290 l0 -290 -200 0 -200 0 0 38 c0
58 26 155 62 229 17 38 32 71 32 75 1 6 -119 88 -129 88 -10 0 -74 -139 -94
-205 -12 -38 -25 -105 -28 -147 l-6 -78 -73 0 -74 0 0 -230 0 -230 90 0 90 0
0 -132 c0 -200 33 -319 125 -458 42 -63 139 -163 199 -206 l28 -20 -12 -125
-12 -125 -292 -148 -291 -149 -172 92 c-169 90 -171 92 -177 129 -15 102 -15
102 61 175 120 116 162 217 170 410 l6 127 58 0 59 0 0 80 0 80 -59 0 -58 0
-7 63 c-26 227 -184 412 -404 473 l-62 17 0 59 0 58 -80 0 -80 0 0 -58 0 -58
-68 -17 c-179 -46 -337 -200 -385 -377 -9 -30 -19 -79 -22 -107 l-7 -53 -59 0
-59 0 0 -80 0 -80 59 0 58 0 5 -123 c9 -194 62 -316 188 -430 l59 -53 -7 -69
-7 -70 -100 -54 c-55 -29 -141 -76 -192 -104 -120 -65 -193 -131 -232 -209
l-31 -61 0 -484 0 -483 603 0 602 0 672 -455 c370 -250 677 -455 683 -455 11
0 650 429 650 436 0 3 -20 34 -43 69 l-44 65 -236 -160 c-130 -88 -239 -160
-242 -160 -3 0 -5 383 -5 850 0 468 3 850 6 850 5 0 148 -101 250 -177 l31
-23 149 162 c82 89 154 168 160 176 9 12 45 -4 214 -92 244 -128 298 -166 334
-237 l26 -53 0 -336 0 -336 -285 -192 c-157 -106 -285 -195 -285 -198 0 -12
83 -124 92 -124 5 0 138 88 296 195 l287 195 603 0 603 0 -3 493 -3 492 -30
54 c-16 29 -53 75 -83 101 -50 45 -89 68 -337 202 l-100 53 -7 70 -7 69 59 53
c126 114 179 236 188 430 l5 123 58 0 59 0 0 80 0 80 -59 0 -60 0 -6 48 c-10
80 -35 164 -67 224 -63 119 -206 230 -340 265 l-68 17 0 58 0 58 -80 0 -80 0
0 -58 0 -59 -62 -17 c-220 -61 -378 -246 -404 -473 l-7 -63 -58 0 -59 0 0 -80
0 -80 59 0 58 0 6 -127 c8 -193 50 -294 170 -410 76 -73 76 -73 61 -175 -6
-37 -8 -39 -177 -129 l-172 -92 -291 149 -292 148 -12 125 -12 125 28 20 c60
43 157 143 199 206 92 139 125 258 125 458 l0 132 90 0 90 0 0 230 0 230 -75
0 -75 0 0 39 c0 62 -26 180 -55 254 -78 194 -251 367 -443 442 -60 23 -70 32
-94 75 -40 71 -110 110 -198 109 -36 0 -75 -4 -88 -9z m138 -172 c19 -21 20
-33 20 -380 l0 -358 -70 0 -70 0 0 358 c0 347 1 359 20 380 27 29 73 29 100 0z
m270 -196 c78 -44 201 -177 242 -262 39 -80 68 -181 68 -242 l0 -38 -200 0
-200 0 0 291 0 290 23 -7 c12 -3 42 -18 67 -32z m460 -772 l0 -70 -780 0 -780
0 0 70 0 70 780 0 780 0 0 -70z m-2460 -290 l80 0 0 90 0 90 48 -18 c138 -53
239 -178 258 -319 l7 -53 -397 0 -397 0 7 48 c21 146 123 275 255 322 l54 19
3 -90 3 -89 79 0z m3360 0 l79 0 3 89 3 90 54 -19 c133 -48 230 -172 256 -327
l7 -43 -397 0 -398 0 7 53 c19 140 120 266 255 318 l46 17 3 -89 3 -89 79 0z
m-1080 -60 c0 -148 -11 -202 -62 -309 -32 -67 -56 -101 -117 -160 -195 -194
-475 -235 -710 -104 -95 52 -199 160 -245 253 -54 110 -66 166 -66 313 l0 127
600 0 600 0 0 -120z m-1892 -422 c-4 -84 -11 -128 -27 -171 -31 -80 -114 -167
-199 -209 -62 -31 -74 -33 -167 -33 -87 0 -107 3 -155 26 -156 74 -240 220
-240 416 l0 83 396 0 397 0 -5 -112z m3372 38 c0 -205 -82 -350 -240 -425 -48
-23 -68 -26 -155 -26 -93 0 -105 2 -167 33 -85 42 -168 129 -199 209 -16 43
-23 87 -27 171 l-5 112 397 0 396 0 0 -74z m-2218 -412 c94 -19 237 -15 328
10 36 9 57 11 61 4 3 -5 9 -46 13 -91 5 -60 3 -84 -6 -92 -7 -7 -68 -50 -135
-95 l-123 -83 -132 90 -133 91 3 74 c3 96 9 121 27 114 9 -3 52 -13 97 -22z
m-1572 -201 c52 -3 114 0 137 5 l41 9 7 -44 c7 -50 4 -56 -102 -170 l-58 -63
-80 90 c-44 50 -80 95 -79 100 1 6 2 28 3 51 1 35 4 40 19 34 9 -5 60 -10 112
-12z m3420 0 c52 2 102 7 111 11 24 10 37 -120 16 -161 -47 -91 -231 -100
-297 -15 -21 26 -25 74 -14 143 l6 36 42 -9 c22 -5 84 -8 136 -5z m-1953 -178
l102 -69 -87 -64 c-48 -35 -94 -68 -103 -73 -14 -7 -36 12 -112 94 l-95 103
86 46 c47 26 91 44 97 40 6 -4 57 -38 112 -77z m686 -112 c-76 -82 -98 -101
-112 -94 -9 5 -55 38 -103 73 l-87 64 112 76 112 77 87 -47 86 -46 -95 -103z
m-2295 -28 l91 -100 1 -102 0 -103 -326 0 -326 0 7 53 c8 65 40 115 101 159
48 34 345 197 355 195 3 -1 46 -47 97 -102z m610 -63 c-68 -51 -130 -134 -149
-197 l-13 -45 -98 0 -98 0 0 106 0 106 91 99 90 98 118 -62 117 -61 -58 -44z
m2674 95 c77 -77 142 -100 268 -95 112 5 176 32 243 103 l42 44 135 -71 c159
-83 229 -133 261 -185 24 -38 24 -38 27 -420 l3 -383 -500 0 -500 0 -3 348 -3
347 -29 60 c-30 61 -110 149 -165 181 l-30 18 97 52 c53 29 98 52 99 53 1 1
26 -23 55 -52z m-1957 -155 l158 -172 31 23 c102 76 245 177 250 177 3 0 6
-383 6 -851 0 -483 -4 -849 -9 -847 -5 2 -268 178 -585 393 l-576 390 0 335 0
336 26 53 c18 35 44 65 78 91 50 38 445 251 457 247 3 -1 77 -80 164 -175z
m-1235 -412 l0 -70 -325 0 -325 0 0 70 0 70 325 0 325 0 0 -70z m350 0 l0 -70
-95 0 -95 0 0 70 0 70 95 0 95 0 0 -70z m-350 -335 l0 -105 -325 0 -325 0 0
105 0 105 325 0 325 0 0 -105z m350 0 l0 -105 -95 0 -95 0 0 105 0 105 95 0
95 0 0 -105z"/>
<path d="M3510 1720 l0 -80 80 0 80 0 0 80 0 80 -80 0 -80 0 0 -80z"/>
<path d="M3510 1420 l0 -80 80 0 80 0 0 80 0 80 -80 0 -80 0 0 -80z"/>
</g>
</svg>
